# Blender 4.2.3 LTS
# www.blender.org
o Sphere
v 0.000000 0.831470 -0.555570
v 0.000000 0.195090 -0.980785
v 0.000000 -0.555570 -0.831470
v 0.392847 0.831470 -0.392847
v 0.693520 0.195090 -0.693520
v 0.587938 -0.555570 -0.587938
v 0.137950 -0.980785 -0.137950
v 0.000000 1.000000 0.000000
v 0.555570 0.831470 0.000000
v 0.980785 0.195090 0.000000
v 0.831469 -0.555570 0.000000
v 0.195090 -0.980785 0.000000
v 0.392847 0.831470 0.392847
v 0.693520 0.195090 0.693520
v 0.587938 -0.555570 0.587938
v 0.137950 -0.980785 0.137950
v -0.000000 0.831470 0.555570
v -0.000000 0.195090 0.980785
v -0.000000 -0.555570 0.831469
v -0.000000 -0.980785 0.195090
v -0.392847 0.831470 0.392847
v -0.693520 0.195090 0.693520
v -0.587938 -0.555570 0.587937
v -0.137950 -0.980785 0.137950
v 0.000000 -1.000000 0.000000
v -0.555570 0.831470 -0.000000
v -0.980785 0.195090 -0.000000
v -0.831469 -0.555570 -0.000000
v -0.195090 -0.980785 -0.000000
v -0.392847 0.831470 -0.392847
v -0.693519 0.195090 -0.693520
v -0.587937 -0.555570 -0.587938
v -0.137950 -0.980785 -0.137950
v 0.000000 -0.980785 -0.195090
vn 0.3764 -0.1807 -0.9087
vn 0.1194 0.9501 -0.2882
vn 0.0406 -0.9944 -0.0979
vn 0.7862 0.5253 -0.3256
vn -0.3256 0.5253 -0.7862
vn 0.2882 0.9501 -0.1194
vn 0.5414 -0.8103 -0.2243
vn 0.0979 -0.9944 -0.0406
vn 0.3764 -0.1807 0.9087
vn 0.7862 0.5253 0.3256
vn 0.2882 0.9501 0.1194
vn -0.2243 -0.8103 0.5414
vn 0.0979 -0.9944 0.0406
vn 0.3256 0.5253 0.7862
vn -0.3764 -0.1807 0.9087
vn 0.1194 0.9501 0.2882
vn -0.5414 -0.8103 0.2243
vn 0.0406 -0.9944 0.0979
vn -0.3256 0.5253 0.7862
vn -0.9087 -0.1807 0.3764
vn -0.1194 0.9501 0.2882
vn -0.5414 -0.8103 -0.2243
vn -0.0406 -0.9944 0.0979
vn -0.7862 0.5253 0.3256
vn -0.9087 -0.1807 -0.3764
vn -0.2882 0.9501 0.1194
vn -0.2243 -0.8103 -0.5414
vn -0.0979 -0.9944 0.0406
vn -0.0406 -0.9944 -0.0979
vn -0.7862 0.5253 -0.3256
vn -0.2882 0.9501 -0.1194
vn -0.0979 -0.9944 -0.0406
vn -0.1194 0.9501 -0.2882
vn 0.9087 -0.1807 -0.3764
vn 0.9087 -0.1807 0.3764
vn 0.2243 -0.8103 -0.5414
vn 0.5414 -0.8103 0.2243
vn 0.2243 -0.8103 0.5414
vn -0.3764 -0.1807 -0.9087
vn 0.3256 0.5253 -0.7862
vt 0.750000 0.312500
vt 0.625000 0.562500
vt 0.625000 0.312500
vt 0.625000 0.812500
vt 0.750000 0.812500
vt 0.578125 1.000000
vt 0.625000 0.062500
vt 0.734375 0.000000
vt 0.750000 0.062500
vt 0.500000 0.812500
vt 0.500000 0.562500
vt 0.875000 0.562500
vt 0.875000 0.812500
vt 0.453125 1.000000
vt 0.500000 0.062500
vt 0.500000 0.312500
vt 0.609375 0.000000
vt 0.375000 0.312500
vt 0.250000 0.562500
vt 0.250000 0.312500
vt 0.375000 0.562500
vt 0.375000 0.812500
vt 0.328125 1.000000
vt 0.250000 0.062500
vt 0.125000 0.312500
vt 0.125000 0.062500
vt 0.375000 0.062500
vt 0.484375 0.000000
vt 0.250000 0.812500
vt 0.125000 0.562500
vt 0.203125 1.000000
vt 0.000000 0.062500
vt 1.000000 0.312500
vt 0.359375 0.000000
vt 0.125000 0.812500
vt 1.000000 0.562500
vt 0.078125 1.000000
vt 0.875000 0.312500
vt 0.875000 0.062500
vt 0.234375 0.000000
vt 1.000000 0.812500
vt 0.000000 0.562500
vt 0.953125 1.000000
vt 0.000000 0.812500
vt 0.109375 0.000000
vt 0.859375 0.000000
vt 0.828125 1.000000
vt 0.984375 0.000000
vt 0.703125 1.000000
vt 0.750000 0.562500
vt 0.000000 0.312500
s 0
f 3/1/1 5/2/1 6/3/1
f 4/4/2 1/5/2 8/6/2
f 7/7/3 25/8/3 34/9/3
f 5/2/4 9/10/4 10/11/4
f 1/5/5 31/12/5 30/13/5
f 8/14/6 9/10/6 4/4/6
f 12/15/7 6/3/7 11/16/7
f 12/15/8 25/17/8 7/7/8
f 15/18/9 18/19/9 19/20/9
f 14/21/10 9/10/10 13/22/10
f 8/23/11 13/22/11 9/10/11
f 20/24/12 23/25/12 24/26/12
f 16/27/13 25/28/13 12/15/13
f 14/21/14 17/29/14 18/19/14
f 19/20/15 22/30/15 23/25/15
f 8/31/16 17/29/16 13/22/16
f 29/32/17 23/25/17 28/33/17
f 20/24/18 25/34/18 16/27/18
f 18/19/19 21/35/19 22/30/19
f 23/25/20 27/36/20 28/33/20
f 8/37/21 21/35/21 17/29/21
f 29/32/22 32/38/22 33/39/22
f 24/26/23 25/40/23 20/24/23
f 27/36/24 21/35/24 26/41/24
f 32/38/25 27/42/25 31/12/25
f 8/43/26 26/44/26 21/35/26
f 32/38/27 34/9/27 33/39/27
f 29/32/28 25/45/28 24/26/28
f 34/9/29 25/46/29 33/39/29
f 27/42/30 30/13/30 31/12/30
f 8/47/31 30/13/31 26/44/31
f 33/39/32 25/48/32 29/32/32
f 1/5/33 30/13/33 8/49/33
f 6/3/34 10/11/34 11/16/34
f 11/16/35 14/21/35 15/18/35
f 3/1/36 7/7/36 34/9/36
f 12/15/37 15/18/37 16/27/37
f 16/27/38 19/20/38 20/24/38
f 2/50/39 32/38/39 31/12/39
f 2/50/40 4/4/40 5/2/40
f 3/1/1 2/50/1 5/2/1
f 5/2/4 4/4/4 9/10/4
f 1/5/5 2/50/5 31/12/5
f 12/15/7 7/7/7 6/3/7
f 15/18/9 14/21/9 18/19/9
f 14/21/10 10/11/10 9/10/10
f 20/24/12 19/20/12 23/25/12
f 14/21/14 13/22/14 17/29/14
f 19/20/15 18/19/15 22/30/15
f 29/32/17 24/26/17 23/25/17
f 18/19/19 17/29/19 21/35/19
f 23/25/20 22/30/20 27/36/20
f 29/32/22 28/51/22 32/38/22
f 27/36/24 22/30/24 21/35/24
f 32/38/25 28/51/25 27/42/25
f 32/38/27 3/1/27 34/9/27
f 27/42/30 26/44/30 30/13/30
f 6/3/34 5/2/34 10/11/34
f 11/16/35 10/11/35 14/21/35
f 3/1/36 6/3/36 7/7/36
f 12/15/37 11/16/37 15/18/37
f 16/27/38 15/18/38 19/20/38
f 2/50/39 3/1/39 32/38/39
f 2/50/40 1/5/40 4/4/40
